<svg id="Layer_5" enable-background="new 0 0 64 64" height="512" viewBox="0 0 64 64" width="512" xmlns="http://www.w3.org/2000/svg"><path d="m30 1h-26c-1.654 0-3 1.346-3 3v22c0 1.654 1.346 3 3 3h26c1.654 0 3-1.346 3-3v-22c0-1.654-1.346-3-3-3zm-26 2h26c.552 0 1 .449 1 1v5h-28v-5c0-.551.448-1 1-1zm26 24h-26c-.552 0-1-.449-1-1v-15h28v15c0 .551-.448 1-1 1z"/><path d="m5 5h2v2h-2z"/><path d="m13 5h2v2h-2z"/><path d="m9 5h2v2h-2z"/><path d="m19 13h-14v8h10v4h14v-8h-10zm-12 6v-4h10v2h-2v2zm20 4h-10v-4h10z"/><path d="m30 35h-26c-1.654 0-3 1.346-3 3v22c0 1.654 1.346 3 3 3h26c1.654 0 3-1.346 3-3v-22c0-1.654-1.346-3-3-3zm-26 2h26c.552 0 1 .449 1 1v5h-28v-5c0-.551.448-1 1-1zm26 24h-26c-.552 0-1-.449-1-1v-15h28v15c0 .551-.448 1-1 1z"/><path d="m5 39h2v2h-2z"/><path d="m9 39h2v2h-2z"/><path d="m13 39h2v2h-2z"/><path d="m19 47h-14v8h10v4h14v-8h-10zm-12 2h10v4h-10zm20 4v4h-10v-2h2v-2z"/><path d="m58 14h-13v-5l-10.667 8 10.667 8v-5h12v4.525c-.94-.334-1.947-.525-3-.525-4.963 0-9 4.038-9 9v4.142c-.795.432-1.534.979-2.192 1.637l-5.029 5.029c-1.793 1.791-2.779 4.172-2.779 6.707 0 5.23 4.255 9.485 9.485 9.485 2.533 0 4.915-.987 6.707-2.778l5.029-5.029c1.532-1.531 2.478-3.531 2.713-5.674 2.446-1.612 4.066-4.378 4.066-7.519v-4-2-14c0-2.757-2.243-5-5-5zm-3.192 36.778-5.029 5.029c-1.415 1.414-3.295 2.193-5.294 2.193-4.127 0-7.485-3.358-7.485-7.485 0-2 .778-3.879 2.192-5.293l5.029-5.029c1.415-1.414 3.295-2.193 5.294-2.193 2.556 0 4.886 1.294 6.26 3.406-.499.368-1.109.594-1.775.594-.724 0-1.422-.262-2.03-.788l-1.641-1.212h-.814c-1.465 0-2.842.57-3.878 1.606l-5.03 5.03c-1.037 1.036-1.607 2.414-1.607 3.879 0 3.025 2.461 5.485 5.485 5.485 1.465 0 2.842-.57 3.878-1.606l5.03-5.03c.403-.403.739-.874 1-1.383.796-.035 1.568-.163 2.297-.392-.349 1.195-.987 2.294-1.882 3.189zm2.192-11.778c0 .209-.022.412-.063.609-1.474-1.866-3.58-3.113-5.937-3.483v-3.126c0-1.654 1.346-3 3-3s3 1.346 3 3zm-10.657 4.729c1.291 2.094 3.383 3.539 5.774 4.05-.049.055-.085.119-.137.171l-5.03 5.03c-.659.658-1.534 1.02-2.465 1.02-1.922 0-3.485-1.563-3.485-3.485 0-.917.372-1.816 1.021-2.464zm14.657-4.729c0 3.86-3.141 7-7 7-2.56 0-4.869-1.391-6.098-3.588.494-.259 1.039-.412 1.613-.412h.157l1.046.77c.91.793 2.076 1.23 3.282 1.23 2.757 0 5-2.243 5-5v-6c0-2.757-2.243-5-5-5s-5 2.243-5 5v3.025c-.683.036-1.352.142-2 .32v-3.345c0-3.86 3.141-7 7-7s7 3.14 7 7v2zm-2-13.478v-5.522c0-1.103-.897-2-2-2h-14v3l-5.333-4 5.333-4v3h15c1.654 0 3 1.346 3 3v8.356c-.571-.707-1.244-1.327-2-1.834z"/></svg>